Menu
00:00:00.000                     : Capítulo 01 - SANTORINI
00:08:07.066                     : Capítulo 02 - KEYS TO IMAGINATION
00:15:26.033                     : Capítulo 03 - UNTIL THE LAST MOMENT
00:22:34.166                     : Capítulo 04 - THE RAIN MUST FALL
00:29:02.000                     : Capítulo 05 - ONE MAN'S DREAM
00:35:15.966                     : Capítulo 06 - WITHIN ATTRACTION
00:43:26.066                     : Capítulo 07 - FELITSA
00:47:05.333                     : Capítulo 08 - MARCHING SEASON
00:53:57.866                     : Capítulo 09 - NOSTALGIA
01:00:36.533                     : Capítulo 10 - ACROYALIS/STANDING IN MOTION (MEDLEY)
01:10:05.500                     : Capítulo 11 - ARIA
01:16:58.900                     : Capítulo 12 - SWEPR AWAY
01:21:56.166                     : Capítulo 13 - REFLECTIONS OF PASSION
01:29:40.266                     : Capítulo 14 - THE END OF AGUST

General
Complete name                    : D:\Vídeos\Yanni Live at the Acropolis (1994) [DVDRip].mp4
Format                           : MPEG-4
Format profile                   : Base Media / Version 2
Codec ID                         : mp42
File size                        : 963 MiB
Duration                         : 1h 36mn
Overall bit rate                 : 1 398 Kbps
Encoded date                     : UTC 2011-09-18 21:58:59
Tagged date                      : UTC 2011-09-18 23:42:39

Video
ID                               : 1
Format                           : AVC
Format/Info                      : Advanced Video Codec
Format profile                   : Main@L3.0
Format settings, CABAC           : Yes
Format settings, ReFrames        : 2 frames
Codec ID                         : avc1
Codec ID/Info                    : Advanced Video Coding
Duration                         : 1h 36mn
Bit rate mode                    : Variable
Bit rate                         : 1 201 Kbps
Maximum bit rate                 : 2 818 Kbps
Width                            : 720 pixels
Height                           : 480 pixels
Display aspect ratio             : 4:3
Frame rate mode                  : Constant
Frame rate                       : 29.970 fps
Standard                         : NTSC
Color space                      : YUV
Chroma subsampling               : 4:2:0
Bit depth                        : 8 bits
Scan type                        : Progressive
Bits/(Pixel*Frame)               : 0.116
Stream size                      : 828 MiB (86%)
Language                         : English
Encoded date                     : UTC 2011-09-18 21:59:01
Tagged date                      : UTC 2011-09-18 23:42:39
Material_Duration                : 5779507
Material_StreamSize              : 867975964
Material_FrameCount              : 173212

Audio
ID                               : 2
Format                           : AC-3
Format/Info                      : Audio Coding 3
Mode extension                   : CM (complete main)
Codec ID                         : ac-3
Duration                         : 1h 36mn
Bit rate mode                    : Constant
Bit rate                         : 192 Kbps
Channel(s)                       : 2 channels
Channel positions                : Front: L R
Sampling rate                    : 48.0 KHz
Bit depth                        : 16 bits
Compression mode                 : Lossy
Stream size                      : 132 MiB (14%)
Title                            : Inglês
Language                         : English
Encoded date                     : UTC 2011-09-18 21:59:01
Tagged date                      : UTC 2011-09-18 23:42:39
Material_Duration                : 5779456
Material_StreamSize              : 138706944